<?xml version="1.0" encoding="UTF-8" standalone="no"?>
<!DOCTYPE svg PUBLIC "-//W3C//DTD SVG 1.1//EN" "http://www.w3.org/Graphics/SVG/1.1/DTD/svg11.dtd">
<svg width="100%" height="100%" viewBox="0 0 100 100" version="1.1" xmlns="http://www.w3.org/2000/svg" xmlns:xlink="http://www.w3.org/1999/xlink" xml:space="preserve" xmlns:serif="http://www.serif.com/" style="fill-rule:evenodd;clip-rule:evenodd;stroke-linejoin:round;stroke-miterlimit:2;">
    <g transform="matrix(1,0,0,1,-809,0)">
        <g id="icon" transform="matrix(1,0,0,1,363,-1.56319e-13)">
            <rect x="446" y="0" width="100" height="100" style="fill:none;"/>
            <clipPath id="_clip1">
                <rect x="446" y="0" width="100" height="100"/>
            </clipPath>
            <g clip-path="url(#_clip1)">
                <g transform="matrix(1,0,0,1,409.645,428.002)">
                    <g transform="matrix(0.110132,0,0,0.110132,21.3223,-445.623)">
                        <path d="M590.414,1067.91C588.645,1066.07 559.435,1036.29 505,1016C424.75,986.096 355.913,1013.09 257,955C202.319,922.886 159.567,859.219 159,761C158.243,629.997 245.178,564.173 241,474C237.382,395.902 176,310 176,310L332,160C332,160 402.166,207.529 473,205C543.834,202.471 590.5,166 590.5,166L590.636,166.105C593.435,168.243 639.376,202.55 708,205C778.834,207.529 849,160 849,160L1005,310C1005,310 943.618,395.902 940,474C935.822,564.173 1022.76,629.997 1022,761C1021.43,859.219 978.681,922.886 924,955C825.087,1013.09 756.25,986.096 676,1016C619.812,1036.94 590.5,1068 590.5,1068L590.414,1067.91Z" style="fill:white;"/>
                    </g>
                    <g transform="matrix(0.110132,0,0,0.110132,21.3223,-445.623)">
                        <path d="M272,434C272,434 268.483,402.722 254,373C235.815,335.68 219,315 219,315L337,202C337,202 384.526,236.5 461,240C527.484,243.043 590.5,209 590.5,209L590.683,209.098C594.436,211.088 655.59,242.948 720,240C796.474,236.5 844,202 844,202L962,315C962,315 945.185,335.68 927,373C912.517,402.722 909,434 909,434L272,434Z" style="fill:rgb(209,0,26);"/>
                    </g>
                    <g transform="matrix(0.110132,0,0,0.110132,21.3223,-445.623)">
                        <path d="M590.432,1010.93C589.027,1009.52 565.842,986.654 523,974C478.779,960.939 368.426,954.179 306,933C244.118,912.006 201.282,848.459 196,784C187.723,682.993 240.279,612.045 257,566C273.721,519.955 276,471 276,471L905,471C905,471 907.279,519.955 924,566C940.721,612.045 993.277,682.993 985,784C979.718,848.459 936.882,912.006 875,933C812.574,954.179 702.221,960.939 658,974C613.779,987.061 590.5,1011 590.5,1011L590.432,1010.93Z" style="fill:rgb(4,0,184);"/>
                    </g>
                </g>
                <g transform="matrix(0.14039,0,0,0.14039,402.3,28.9827)">
                    <g transform="matrix(360,0,0,360,438.827,352.357)">
                        <path d="M0.532,-0.559L0.532,-0.7L0.073,-0.7L0.073,-0.305C0.116,-0.308 0.227,-0.31 0.263,-0.31C0.332,-0.31 0.372,-0.278 0.372,-0.223C0.372,-0.163 0.332,-0.129 0.263,-0.129C0.2,-0.129 0.137,-0.159 0.085,-0.215L0.014,-0.08C0.087,-0.028 0.192,0.007 0.284,0.007C0.453,0.007 0.563,-0.088 0.563,-0.235C0.563,-0.36 0.458,-0.446 0.298,-0.446L0.235,-0.446L0.235,-0.559L0.532,-0.559Z" style="fill:white;fill-rule:nonzero;"/>
                    </g>
                    <g transform="matrix(360,0,0,360,653.027,352.357)">
                        <path d="M0.352,-0.706C0.152,-0.706 0.041,-0.579 0.041,-0.351C0.041,-0.122 0.152,0.005 0.352,0.005C0.55,0.005 0.661,-0.122 0.661,-0.351C0.661,-0.579 0.55,-0.706 0.352,-0.706ZM0.352,-0.576C0.44,-0.576 0.479,-0.511 0.479,-0.351C0.479,-0.191 0.44,-0.125 0.352,-0.125C0.262,-0.125 0.224,-0.191 0.224,-0.351C0.224,-0.511 0.262,-0.576 0.352,-0.576Z" style="fill:white;fill-rule:nonzero;"/>
                    </g>
                </g>
            </g>
        </g>
    </g>
</svg>
