<?xml version="1.0" encoding="UTF-8" standalone="no"?>
<!DOCTYPE svg PUBLIC "-//W3C//DTD SVG 1.1//EN" "http://www.w3.org/Graphics/SVG/1.1/DTD/svg11.dtd">
<svg width="100%" height="100%" viewBox="0 0 100 101" version="1.1" xmlns="http://www.w3.org/2000/svg" xmlns:xlink="http://www.w3.org/1999/xlink" xml:space="preserve" xmlns:serif="http://www.serif.com/" style="fill-rule:evenodd;clip-rule:evenodd;stroke-linejoin:round;stroke-miterlimit:2;">
    <g transform="matrix(1,0,0,1,-809,-1)">
        <g id="icon" transform="matrix(1,0,0,1,363,1.71469)">
            <rect x="446" y="0" width="100" height="100" style="fill:none;"/>
            <g transform="matrix(1.06379,0,0,1.06379,-31.6384,-3.18935)">
                <g transform="matrix(0.0983299,0,0,0.0983299,437.936,-10.2764)">
                    <path d="M590.5,1091C590.5,1091 573.845,1091.16 560,1076C529.05,1042.12 483.716,1031.05 413,1023C333.089,1013.9 264.388,1001.72 206,945C174.985,914.873 133.075,855.136 133,758C132.9,627.87 214.001,570.558 216,479C217.43,413.483 163.983,333.583 159,327C154.017,320.417 151.015,317.795 152,308C152.985,298.205 161,290 161,290C161,290 302.506,154.336 309,147C315.494,139.664 321.038,134.985 330,135C342.005,135.02 340.859,136.122 352,144C362.717,151.579 410.331,182.074 470,180C511.339,178.563 537.713,172.578 563.626,154.072C581.124,141.575 590.5,141 590.5,141C590.5,141 600.97,142.356 617.374,154.072C643.287,172.578 669.661,178.563 711,180C770.669,182.074 818.283,151.579 829,144C840.141,136.122 838.995,135.02 851,135C859.962,134.985 865.506,139.664 872,147C878.494,154.336 1020,290 1020,290C1020,290 1028.02,298.205 1029,308C1029.99,317.795 1026.98,320.417 1022,327C1017.02,333.583 963.57,413.483 965,479C966.999,570.558 1048.1,627.87 1048,758C1047.92,855.136 1006.01,914.873 975,945C916.612,1001.72 847.911,1013.9 768,1023C697.284,1031.05 651.95,1042.12 621,1076C606.709,1091.64 590.5,1091 590.5,1091Z" style="fill:rgb(89,89,89);"/>
                </g>
                <g transform="matrix(0.0983299,0,0,0.0983299,437.936,-10.2764)">
                    <path d="M590.414,1067.91C588.645,1066.07 559.435,1036.29 505,1016C424.75,986.096 355.913,1013.09 257,955C202.319,922.886 159.567,859.219 159,761C158.243,629.997 245.178,564.173 241,474C237.382,395.902 176,310 176,310L332,160C332,160 402.166,207.529 473,205C543.834,202.471 590.5,166 590.5,166L590.636,166.105C593.435,168.243 639.376,202.55 708,205C778.834,207.529 849,160 849,160L1005,310C1005,310 943.618,395.902 940,474C935.822,564.173 1022.76,629.997 1022,761C1021.43,859.219 978.681,922.886 924,955C825.087,1013.09 756.25,986.096 676,1016C619.812,1036.94 590.5,1068 590.5,1068L590.414,1067.91Z" style="fill:white;"/>
                </g>
                <g transform="matrix(0.0983299,0,0,0.0983299,437.936,-10.2764)">
                    <path d="M272,434C272,434 268.483,402.722 254,373C235.815,335.68 219,315 219,315L337,202C337,202 384.526,236.5 461,240C527.484,243.043 590.5,209 590.5,209L590.683,209.098C594.436,211.088 655.59,242.948 720,240C796.474,236.5 844,202 844,202L962,315C962,315 945.185,335.68 927,373C912.517,402.722 909,434 909,434L272,434Z" style="fill:rgb(209,0,26);"/>
                </g>
                <g transform="matrix(0.0983299,0,0,0.0983299,429.625,-6.2449)">
                    <g transform="matrix(160,0,0,160,392.467,352.357)">
                        <path d="M0.226,-0.592L0.398,-0.592C0.469,-0.592 0.506,-0.562 0.506,-0.493C0.506,-0.421 0.469,-0.391 0.398,-0.391L0.226,-0.391L0.226,-0.592ZM0.069,-0L0.226,-0L0.226,-0.279L0.383,-0.279C0.462,-0.279 0.491,-0.246 0.502,-0.171C0.51,-0.114 0.509,-0.045 0.527,-0L0.684,-0C0.655,-0.039 0.657,-0.124 0.654,-0.169C0.649,-0.242 0.627,-0.315 0.55,-0.336L0.55,-0.338C0.63,-0.37 0.663,-0.433 0.663,-0.517C0.663,-0.625 0.582,-0.714 0.454,-0.714L0.069,-0.714L0.069,-0Z" style="fill:white;fill-rule:nonzero;"/>
                    </g>
                    <g transform="matrix(160,0,0,160,507.987,352.357)">
                        <path d="M0.195,-0.354C0.195,-0.479 0.248,-0.599 0.389,-0.599C0.53,-0.599 0.583,-0.479 0.583,-0.354C0.583,-0.235 0.53,-0.115 0.389,-0.115C0.248,-0.115 0.195,-0.235 0.195,-0.354ZM0.038,-0.354C0.038,-0.148 0.169,0.017 0.389,0.017C0.609,0.017 0.74,-0.148 0.74,-0.354C0.74,-0.566 0.609,-0.731 0.389,-0.731C0.169,-0.731 0.038,-0.566 0.038,-0.354Z" style="fill:white;fill-rule:nonzero;"/>
                    </g>
                    <g transform="matrix(160,0,0,160,632.467,352.357)">
                        <path d="M0.675,-0.714L0.518,-0.714L0.518,-0.27C0.518,-0.163 0.482,-0.115 0.37,-0.115C0.243,-0.115 0.223,-0.192 0.223,-0.27L0.223,-0.714L0.066,-0.714L0.066,-0.27C0.066,-0.075 0.177,0.017 0.37,0.017C0.561,0.017 0.675,-0.077 0.675,-0.27L0.675,-0.714Z" style="fill:white;fill-rule:nonzero;"/>
                    </g>
                    <g transform="matrix(160,0,0,160,751.027,352.357)">
                        <path d="M0.227,-0L0.384,-0L0.384,-0.582L0.598,-0.582L0.598,-0.714L0.013,-0.714L0.013,-0.582L0.227,-0.582L0.227,-0Z" style="fill:white;fill-rule:nonzero;"/>
                    </g>
                    <g transform="matrix(160,0,0,160,848.787,352.357)">
                        <path d="M0.069,-0L0.611,-0L0.611,-0.132L0.226,-0.132L0.226,-0.307L0.572,-0.307L0.572,-0.429L0.226,-0.429L0.226,-0.582L0.603,-0.582L0.603,-0.714L0.069,-0.714L0.069,-0Z" style="fill:white;fill-rule:nonzero;"/>
                    </g>
                </g>
                <g transform="matrix(0.0983299,0,0,0.0983299,437.936,-10.2764)">
                    <path d="M590.432,1010.93C589.027,1009.52 565.842,986.654 523,974C478.779,960.939 368.426,954.179 306,933C244.118,912.006 201.282,848.459 196,784C187.723,682.993 240.279,612.045 257,566C273.721,519.955 276,471 276,471L905,471C905,471 907.279,519.955 924,566C940.721,612.045 993.277,682.993 985,784C979.718,848.459 936.882,912.006 875,933C812.574,954.179 702.221,960.939 658,974C613.779,987.061 590.5,1011 590.5,1011L590.432,1010.93Z" style="fill:rgb(4,0,184);"/>
                </g>
                <g transform="matrix(0.0983299,0,0,0.0983299,429.567,44.395)">
                    <g transform="matrix(140,0,0,140,420.957,352.357)">
                        <path d="M0.069,-0L0.226,-0L0.226,-0.295L0.525,-0.295L0.525,-0.417L0.226,-0.417L0.226,-0.582L0.571,-0.582L0.571,-0.714L0.069,-0.714L0.069,-0Z" style="fill:white;fill-rule:nonzero;"/>
                    </g>
                    <g transform="matrix(140,0,0,140,503.977,352.357)">
                        <path d="M0.069,-0L0.574,-0L0.574,-0.132L0.226,-0.132L0.226,-0.714L0.069,-0.714L0.069,-0Z" style="fill:white;fill-rule:nonzero;"/>
                    </g>
                    <g transform="matrix(140,0,0,140,586.997,352.357)">
                        <rect x="0.069" y="-0.714" width="0.157" height="0.714" style="fill:white;fill-rule:nonzero;"/>
                    </g>
                    <g transform="matrix(140,0,0,140,628.297,352.357)">
                        <path d="M0.697,-0.474C0.678,-0.639 0.545,-0.731 0.389,-0.731C0.169,-0.731 0.038,-0.566 0.038,-0.354C0.038,-0.148 0.169,0.017 0.389,0.017C0.565,0.017 0.687,-0.096 0.703,-0.275L0.551,-0.275C0.539,-0.18 0.485,-0.115 0.389,-0.115C0.248,-0.115 0.195,-0.235 0.195,-0.354C0.195,-0.479 0.248,-0.599 0.389,-0.599C0.466,-0.599 0.534,-0.545 0.545,-0.474L0.697,-0.474Z" style="fill:white;fill-rule:nonzero;"/>
                    </g>
                    <g transform="matrix(140,0,0,140,732.037,352.357)">
                        <path d="M0.069,-0L0.226,-0L0.226,-0.23L0.316,-0.321L0.531,-0L0.728,-0L0.422,-0.432L0.701,-0.714L0.505,-0.714L0.226,-0.418L0.226,-0.714L0.069,-0.714L0.069,-0Z" style="fill:white;fill-rule:nonzero;"/>
                    </g>
                    <g transform="matrix(140,0,0,140,833.117,352.357)">
                        <path d="M0.024,-0.237C0.021,-0.061 0.17,0.017 0.328,0.017C0.523,0.017 0.625,-0.081 0.625,-0.212C0.625,-0.373 0.466,-0.408 0.413,-0.42C0.234,-0.465 0.2,-0.473 0.2,-0.528C0.2,-0.588 0.258,-0.609 0.308,-0.609C0.384,-0.609 0.444,-0.586 0.449,-0.501L0.601,-0.501C0.601,-0.666 0.464,-0.731 0.315,-0.731C0.186,-0.731 0.048,-0.662 0.048,-0.515C0.048,-0.383 0.155,-0.338 0.261,-0.312C0.365,-0.283 0.473,-0.272 0.473,-0.194C0.473,-0.121 0.389,-0.105 0.334,-0.105C0.25,-0.105 0.176,-0.142 0.176,-0.237L0.024,-0.237Z" style="fill:white;fill-rule:nonzero;"/>
                    </g>
                </g>
                <g transform="matrix(0.0983299,0,0,0.0983299,430.124,30.7272)">
                    <g transform="matrix(360,0,0,360,445.667,352.357)">
                        <path d="M0.022,-0.216C0.033,-0.048 0.151,0.009 0.304,0.009C0.466,0.009 0.59,-0.077 0.59,-0.249C0.59,-0.394 0.499,-0.476 0.356,-0.476C0.303,-0.476 0.255,-0.461 0.22,-0.426L0.218,-0.426L0.244,-0.553L0.553,-0.553L0.553,-0.697L0.113,-0.697L0.045,-0.303L0.199,-0.303C0.226,-0.346 0.262,-0.356 0.31,-0.356C0.381,-0.356 0.42,-0.309 0.42,-0.241C0.42,-0.173 0.371,-0.129 0.304,-0.129C0.253,-0.129 0.192,-0.161 0.192,-0.216L0.022,-0.216Z" style="fill:white;fill-rule:nonzero;"/>
                    </g>
                    <g transform="matrix(360,0,0,360,672.467,352.357)">
                        <path d="M0.31,0.009C0.514,0.009 0.594,-0.163 0.594,-0.349C0.594,-0.536 0.514,-0.706 0.31,-0.706C0.113,-0.706 0.037,-0.536 0.037,-0.349C0.037,-0.163 0.113,0.009 0.31,0.009ZM0.315,-0.129C0.207,-0.129 0.201,-0.258 0.201,-0.349C0.201,-0.44 0.207,-0.568 0.315,-0.568C0.427,-0.568 0.43,-0.44 0.43,-0.349C0.43,-0.258 0.427,-0.129 0.315,-0.129Z" style="fill:white;fill-rule:nonzero;"/>
                    </g>
                </g>
            </g>
        </g>
    </g>
</svg>
