<?xml version="1.0" encoding="UTF-8" standalone="no"?>
<!DOCTYPE svg PUBLIC "-//W3C//DTD SVG 1.1//EN" "http://www.w3.org/Graphics/SVG/1.1/DTD/svg11.dtd">
<svg width="100%" height="100%" viewBox="0 0 100 101" version="1.1" xmlns="http://www.w3.org/2000/svg" xmlns:xlink="http://www.w3.org/1999/xlink" xml:space="preserve" xmlns:serif="http://www.serif.com/" style="fill-rule:evenodd;clip-rule:evenodd;stroke-linejoin:round;stroke-miterlimit:2;">
    <g transform="matrix(1,0,0,1,-809,-1)">
        <g id="icon" transform="matrix(1,0,0,1,363,1.71469)">
            <rect x="446" y="0" width="100" height="100" style="fill:none;"/>
            <g transform="matrix(1.06379,0,0,1.06379,-31.6384,-3.18935)">
                <g transform="matrix(0.0983299,0,0,0.0983299,437.936,-10.2764)">
                    <path d="M590.5,1091C590.5,1091 573.845,1091.16 560,1076C529.05,1042.12 483.716,1031.05 413,1023C333.089,1013.9 264.388,1001.72 206,945C174.985,914.873 133.075,855.136 133,758C132.9,627.87 214.001,570.558 216,479C217.43,413.483 163.983,333.583 159,327C154.017,320.417 151.015,317.795 152,308C152.985,298.205 161,290 161,290C161,290 302.506,154.336 309,147C315.494,139.664 321.038,134.985 330,135C342.005,135.02 340.859,136.122 352,144C362.717,151.579 410.331,182.074 470,180C511.339,178.563 537.713,172.578 563.626,154.072C581.124,141.575 590.5,141 590.5,141C590.5,141 600.97,142.356 617.374,154.072C643.287,172.578 669.661,178.563 711,180C770.669,182.074 818.283,151.579 829,144C840.141,136.122 838.995,135.02 851,135C859.962,134.985 865.506,139.664 872,147C878.494,154.336 1020,290 1020,290C1020,290 1028.02,298.205 1029,308C1029.99,317.795 1026.98,320.417 1022,327C1017.02,333.583 963.57,413.483 965,479C966.999,570.558 1048.1,627.87 1048,758C1047.92,855.136 1006.01,914.873 975,945C916.612,1001.72 847.911,1013.9 768,1023C697.284,1031.05 651.95,1042.12 621,1076C606.709,1091.64 590.5,1091 590.5,1091Z" style="fill:rgb(89,89,89);"/>
                </g>
                <g transform="matrix(0.0983299,0,0,0.0983299,437.936,-10.2764)">
                    <path d="M590.414,1067.91C588.645,1066.07 559.435,1036.29 505,1016C424.75,986.096 355.913,1013.09 257,955C202.319,922.886 159.567,859.219 159,761C158.243,629.997 245.178,564.173 241,474C237.382,395.902 176,310 176,310L332,160C332,160 402.166,207.529 473,205C543.834,202.471 590.5,166 590.5,166L590.636,166.105C593.435,168.243 639.376,202.55 708,205C778.834,207.529 849,160 849,160L1005,310C1005,310 943.618,395.902 940,474C935.822,564.173 1022.76,629.997 1022,761C1021.43,859.219 978.681,922.886 924,955C825.087,1013.09 756.25,986.096 676,1016C619.812,1036.94 590.5,1068 590.5,1068L590.414,1067.91Z" style="fill:white;"/>
                </g>
                <g transform="matrix(0.0983299,0,0,0.0983299,437.936,-10.2764)">
                    <path d="M272,434C272,434 268.483,402.722 254,373C235.815,335.68 219,315 219,315L337,202C337,202 384.526,236.5 461,240C527.484,243.043 590.5,209 590.5,209L590.683,209.098C594.436,211.088 655.59,242.948 720,240C796.474,236.5 844,202 844,202L962,315C962,315 945.185,335.68 927,373C912.517,402.722 909,434 909,434L272,434Z" style="fill:rgb(209,0,26);"/>
                </g>
                <g transform="matrix(0.0983299,0,0,0.0983299,429.625,-6.2449)">
                    <text x="392.467px" y="352.357px" style="font-family:'HelveticaNeueLTPro-Bd', 'Helvetica Neue LT Pro', sans-serif;font-weight:700;font-size:160px;fill:white;">ROUTE</text>
                </g>
                <g transform="matrix(0.0983299,0,0,0.0983299,437.936,-10.2764)">
                    <path d="M590.432,1010.93C589.027,1009.52 565.842,986.654 523,974C478.779,960.939 368.426,954.179 306,933C244.118,912.006 201.282,848.459 196,784C187.723,682.993 240.279,612.045 257,566C273.721,519.955 276,471 276,471L905,471C905,471 907.279,519.955 924,566C940.721,612.045 993.277,682.993 985,784C979.718,848.459 936.882,912.006 875,933C812.574,954.179 702.221,960.939 658,974C613.779,987.061 590.5,1011 590.5,1011L590.432,1010.93Z" style="fill:rgb(4,0,184);"/>
                </g>
                <g transform="matrix(0.0983299,0,0,0.0983299,429.567,44.395)">
                    <text x="420.957px" y="352.357px" style="font-family:'HelveticaNeueLTPro-Bd', 'Helvetica Neue LT Pro', sans-serif;font-weight:700;font-size:140px;fill:white;">FLICKS</text>
                </g>
                <g transform="matrix(0.0983299,0,0,0.0983299,430.124,30.7272)">
                    <text x="445.667px" y="352.357px" style="font-family:'HelveticaNeueLTPro-Hv', 'Helvetica Neue LT Pro', sans-serif;font-weight:750;font-size:360px;fill:white;">50</text>
                </g>
            </g>
        </g>
    </g>
</svg>
